{
  "source": "C:\\Users\\Peter\\Desktop\\stuff\\MIUN\\quantitative_research\\video_compression\\videos\\UVG\\ShakeNDry_1920x1080_120fps_420_8bit_YUV.y4m",
  "output": "C:\\Users\\Peter\\Desktop\\stuff\\MIUN\\quantitative_research\\video_compression\\compressed_videos\\UVG\\av1\\12\\ShakeNDry_1920x1080_120fps_420_8bit_YUV_av1.mkv",
  "codec": "av1",
  "ok": "[yuv4mpegpipe @ 0000026df75b54c0] Stream #0: not enough frames to estimate rate; consider increasing probesize\nInput #0, yuv4mpegpipe, from 'C:\\Users\\Peter\\Desktop\\stuff\\MIUN\\quantitative_research\\video_compression\\videos\\UVG\\ShakeNDry_1920x1080_120fps_420_8bit_YUV.y4m':\n  Duration: 00:00:02.50, start: 0.000000, bitrate: 2985989 kb/s\n  Stream #0:0: Video: rawvideo (I420 / 0x30323449), yuv420p(progressive), 1920x1080, 120 fps, 120 tbr, 120 tbn\n[out#0/matroska @ 0000026df75b93c0] Codec AVOption b:a (set bitrate (in bits/s)) has not been used for any stream. The most likely reason is either wrong type (e.g. a video option with no video streams) or that it is a private option of some decoder which was not actually used for any stream.\nStream mapping:\n  Stream #0:0 -> #0:0 (rawvideo (native) -> av1 (libsvtav1))\nPress [q] to stop, [?] for help\nSvt[info]: -------------------------------------------\nSvt[info]: SVT [version]:\tSVT-AV1 Encoder Lib v3.1.0-19-g6ecfe8ec\nSvt[info]: SVT [build]  :\tGCC 15.2.0\t 64 bit\nSvt[info]: LIB Build date: Aug 17 2025 11:37:13\nSvt[info]: -------------------------------------------\n[libsvtav1 @ 0000026df75bc500] Specified chroma sample location center is unsupported on the AV1 bit stream level. Usage of a container that allows passing this information - such as Matroska - is recommended.\nSvt[info]: Level of Parallelism: 5\nSvt[info]: Number of PPCS 93\nSvt[info]: [asm level on system : up to avx2]\nSvt[info]: [asm level selected : up to avx2]\nSvt[info]: -------------------------------------------\nSvt[info]: SVT [config]: main profile\ttier (auto)\tlevel (auto)\nSvt[info]: SVT [config]: width / height / fps numerator / fps denominator \t\t: 1920 / 1080 / 120 / 1\nSvt[info]: SVT [config]: bit-depth / color format \t\t\t\t\t: 8 / YUV420\nSvt[info]: SVT [config]: preset / tune / pred struct \t\t\t\t\t: 4 / PSNR / random access\nSvt[info]: SVT [config]: gop size / mini-gop size / key-frame type \t\t\t: 641 / 16 / key frame\nSvt[info]: SVT [config]: BRC mode / target bitrate (kbps)\t\t\t\t: VBR / 12000 \nSvt[info]: SVT [config]: AQ mode / Variance Boost \t\t\t\t\t: 2 / 0\nSvt[info]: SVT [config]: sharpness / luminance-based QP bias \t\t\t\t: 0 / 0\nSvt[info]: SVT [config]: QP scale compress strength \t\t\t\t\t: 0\nSvt[info]: -------------------------------------------\nOutput #0, matroska, to 'C:\\Users\\Peter\\Desktop\\stuff\\MIUN\\quantitative_research\\video_compression\\compressed_videos\\UVG\\av1\\12\\ShakeNDry_1920x1080_120fps_420_8bit_YUV_av1.mkv':\n  Metadata:\n    encoder         : Lavf62.3.100\n  Stream #0:0: Video: av1 (AV01 / 0x31305641), yuv420p(tv, progressive), 1920x1080, q=2-31, 12000 kb/s, 120 fps, 1k tbn\n    Metadata:\n      encoder         : Lavc62.11.100 libsvtav1\n    Side data:\n      cpb: bitrate max/min/avg: 0/0/12000000 buffer size: 12000000 vbv_delay: N/A\nframe=    0 fps=0.0 q=0.0 size=       0KiB time=N/A bitrate=N/A speed=N/A elapsed=0:00:01.09    \nframe=    0 fps=0.0 q=0.0 size=       0KiB time=N/A bitrate=N/A speed=N/A elapsed=0:00:01.75    \nframe=    0 fps=0.0 q=0.0 size=       0KiB time=N/A bitrate=N/A speed=N/A elapsed=0:00:02.28    \nframe=    0 fps=0.0 q=0.0 size=       0KiB time=N/A bitrate=N/A speed=N/A elapsed=0:00:02.90    \nframe=    0 fps=0.0 q=0.0 size=       0KiB time=N/A bitrate=N/A speed=N/A elapsed=0:00:03.73    \nframe=    0 fps=0.0 q=0.0 size=       0KiB time=N/A bitrate=N/A speed=N/A elapsed=0:00:04.34    \nframe=    0 fps=0.0 q=0.0 size=       0KiB time=N/A bitrate=N/A speed=N/A elapsed=0:00:04.87    \nframe=    0 fps=0.0 q=0.0 size=       0KiB time=N/A bitrate=N/A speed=N/A elapsed=0:00:05.41    \nframe=    1 fps=0.2 q=9.0 size=       1KiB time=00:00:00.00 bitrate=N/A speed=   0x elapsed=0:00:06.11    \nframe=    1 fps=0.1 q=9.0 size=       1KiB time=00:00:00.00 bitrate=N/A speed=   0x elapsed=0:00:06.70    \nframe=    1 fps=0.1 q=9.0 size=       1KiB time=00:00:00.00 bitrate=N/A speed=   0x elapsed=0:00:07.26    \nframe=    3 fps=0.4 q=36.0 size=       1KiB time=00:00:00.00 bitrate= 537.6kbits/s speed=0.00104x elapsed=0:00:08.00    \nframe=    4 fps=0.5 q=39.0 size=       1KiB time=00:00:00.02 bitrate= 179.2kbits/s speed=0.00285x elapsed=0:00:08.76    \nframe=    6 fps=0.6 q=39.0 size=       1KiB time=00:00:00.04 bitrate= 107.5kbits/s speed=0.00446x elapsed=0:00:09.35    \nframe=    9 fps=0.9 q=31.0 size=       1KiB time=00:00:00.06 bitrate=  67.2kbits/s speed=0.0067x elapsed=0:00:09.94    \nframe=   12 fps=1.1 q=39.0 size=       1KiB time=00:00:00.09 bitrate=  48.9kbits/s speed=0.00865x elapsed=0:00:10.59    \nframe=   15 fps=1.3 q=33.0 size=       1KiB time=00:00:00.11 bitrate=  38.4kbits/s speed=0.0105x elapsed=0:00:11.16    \nframe=   19 fps=1.6 q=35.0 size=       1KiB time=00:00:00.15 bitrate=  29.9kbits/s speed=0.0127x elapsed=0:00:11.77    \nframe=   21 fps=1.7 q=32.0 size=       1KiB time=00:00:00.16 bitrate=  26.9kbits/s speed=0.0135x elapsed=0:00:12.32    \nframe=   23 fps=1.8 q=35.0 size=       1KiB time=00:00:00.18 bitrate=  24.4kbits/s speed=0.0142x elapsed=0:00:12.88    \nframe=   26 fps=1.9 q=39.0 size=       1KiB time=00:00:00.20 bitrate=  21.5kbits/s speed=0.0154x elapsed=0:00:13.50    \nframe=   29 fps=2.1 q=32.0 size=       1KiB time=00:00:00.23 bitrate=  19.2kbits/s speed=0.0165x elapsed=0:00:14.11    \nframe=   32 fps=2.2 q=39.0 size=       1KiB time=00:00:00.25 bitrate=  17.3kbits/s speed=0.0176x elapsed=0:00:14.71    \nframe=   34 fps=2.2 q=39.0 size=       1KiB time=00:00:00.27 bitrate=  16.3kbits/s speed=0.018x elapsed=0:00:15.25    \nframe=   36 fps=2.3 q=39.0 size=       1KiB time=00:00:00.29 bitrate=  15.4kbits/s speed=0.0184x elapsed=0:00:15.84    \nframe=   37 fps=2.3 q=32.0 size=       1KiB time=00:00:00.30 bitrate=  14.9kbits/s speed=0.0182x elapsed=0:00:16.43    \nframe=   39 fps=2.3 q=34.0 size=       1KiB time=00:00:00.31 bitrate=  14.1kbits/s speed=0.0186x elapsed=0:00:16.99    \nframe=   42 fps=2.4 q=39.0 size=       1KiB time=00:00:00.34 bitrate=  13.1kbits/s speed=0.0195x elapsed=0:00:17.54    \nframe=   47 fps=2.6 q=33.0 size=       1KiB time=00:00:00.37 bitrate=  11.9kbits/s speed=0.0207x elapsed=0:00:18.10    \nframe=   50 fps=2.7 q=38.0 size=       1KiB time=00:00:00.40 bitrate=  11.0kbits/s speed=0.0218x elapsed=0:00:18.69    \nframe=   53 fps=2.8 q=31.0 size=       1KiB time=00:00:00.42 bitrate=  10.5kbits/s speed=0.0221x elapsed=0:00:19.23    \nframe=   54 fps=2.7 q=38.0 size=       1KiB time=00:00:00.44 bitrate=  10.1kbits/s speed=0.0223x elapsed=0:00:19.81    \nframe=   57 fps=2.8 q=28.0 size=       1KiB time=00:00:00.46 bitrate=   9.6kbits/s speed=0.0229x elapsed=0:00:20.37    \nframe=   61 fps=2.9 q=31.0 size=       1KiB time=00:00:00.49 bitrate=   9.1kbits/s speed=0.0234x elapsed=0:00:21.03    \nframe=   64 fps=3.0 q=38.0 size=       1KiB time=00:00:00.52 bitrate=   8.5kbits/s speed=0.0243x elapsed=0:00:21.64    \nframe=   66 fps=3.0 q=38.0 size=       1KiB time=00:00:00.54 bitrate=   8.3kbits/s speed=0.0244x elapsed=0:00:22.19    \nframe=   69 fps=3.0 q=30.0 size=       1KiB time=00:00:00.56 bitrate=   7.9kbits/s speed=0.0249x elapsed=0:00:22.79    \nframe=   70 fps=3.0 q=38.0 size=       1KiB time=00:00:00.57 bitrate=   7.8kbits/s speed=0.0246x elapsed=0:00:23.33    \nframe=   74 fps=3.1 q=38.0 size=       1KiB time=00:00:00.60 bitrate=   7.4kbits/s speed=0.0254x elapsed=0:00:23.95    \nframe=   78 fps=3.2 q=37.0 size=       1KiB time=00:00:00.64 bitrate=   7.0kbits/s speed=0.0262x elapsed=0:00:24.51    \nframe=   82 fps=3.3 q=37.0 size=       1KiB time=00:00:00.67 bitrate=   6.6kbits/s speed=0.0269x elapsed=0:00:25.05    \nframe=   85 fps=3.3 q=29.0 size=       1KiB time=00:00:00.70 bitrate=   6.4kbits/s speed=0.0273x elapsed=0:00:25.64    \nframe=   86 fps=3.3 q=37.0 size=       1KiB time=00:00:00.70 bitrate=   6.3kbits/s speed=0.0269x elapsed=0:00:26.31    \nframe=   89 fps=3.3 q=26.0 size=       1KiB time=00:00:00.73 bitrate=   6.1kbits/s speed=0.0273x elapsed=0:00:26.87    \nframe=   91 fps=3.3 q=33.0 size=       1KiB time=00:00:00.75 bitrate=   6.0kbits/s speed=0.0273x elapsed=0:00:27.42    \nframe=   95 fps=3.4 q=32.0 size=       1KiB time=00:00:00.77 bitrate=   5.8kbits/s speed=0.0277x elapsed=0:00:27.96    \nframe=   97 fps=3.4 q=15.0 size=       1KiB time=00:00:00.80 bitrate=   5.6kbits/s speed=0.028x elapsed=0:00:28.54    \nframe=   99 fps=3.4 q=32.0 size=       1KiB time=00:00:00.81 bitrate=   5.5kbits/s speed=0.028x elapsed=0:00:29.11    \nframe=  101 fps=3.4 q=36.0 size=       1KiB time=00:00:00.83 bitrate=   5.4kbits/s speed=0.028x elapsed=0:00:29.71    \nframe=  104 fps=3.4 q=36.0 size=       1KiB time=00:00:00.85 bitrate=   5.2kbits/s speed=0.0283x elapsed=0:00:30.31    \nframe=  106 fps=3.4 q=35.0 size=       1KiB time=00:00:00.87 bitrate=   5.1kbits/s speed=0.0282x elapsed=0:00:30.97    \nframe=  110 fps=3.5 q=35.0 size=       1KiB time=00:00:00.90 bitrate=   4.9kbits/s speed=0.0288x elapsed=0:00:31.53    \nframe=  114 fps=3.5 q=34.0 size=       1KiB time=00:00:00.94 bitrate=   4.8kbits/s speed=0.0293x elapsed=0:00:32.15    \nframe=  116 fps=3.5 q=34.0 size=       1KiB time=00:00:00.95 bitrate=   4.7kbits/s speed=0.0293x elapsed=0:00:32.75    \nframe=  118 fps=3.5 q=34.0 size=       1KiB time=00:00:00.97 bitrate=   4.6kbits/s speed=0.0293x elapsed=0:00:33.30    \nframe=  121 fps=3.6 q=25.0 size=       1KiB time=00:00:00.99 bitrate=   4.5kbits/s speed=0.0293x elapsed=0:00:33.87    \nframe=  122 fps=3.5 q=33.0 size=       1KiB time=00:00:01.00 bitrate=   4.4kbits/s speed=0.0293x elapsed=0:00:34.43    \nframe=  127 fps=3.6 q=28.0 size=       1KiB time=00:00:01.05 bitrate=   4.3kbits/s speed=0.03x elapsed=0:00:35.00    \nframe=  130 fps=3.7 q=33.0 size=       1KiB time=00:00:01.07 bitrate=   4.2kbits/s speed=0.0302x elapsed=0:00:35.55    \nframe=  133 fps=3.7 q=28.0 size=       1KiB time=00:00:01.10 bitrate=   4.1kbits/s speed=0.0303x elapsed=0:00:36.30    \nframe=  136 fps=3.7 q=33.0 size=       1KiB time=00:00:01.11 bitrate=   4.0kbits/s speed=0.0303x elapsed=0:00:36.87    \nframe=  138 fps=3.7 q=33.0 size=       1KiB time=00:00:01.14 bitrate=   3.9kbits/s speed=0.0303x elapsed=0:00:37.65    \nframe=  143 fps=3.7 q=29.0 size=       1KiB time=00:00:01.17 bitrate=   3.8kbits/s speed=0.0306x elapsed=0:00:38.36    \nframe=  146 fps=3.7 q=33.0 size=       1KiB time=00:00:01.20 bitrate=   3.7kbits/s speed=0.031x elapsed=0:00:38.95    \nframe=  150 fps=3.8 q=33.0 size=       1KiB time=00:00:01.24 bitrate=   3.6kbits/s speed=0.0314x elapsed=0:00:39.56    \nframe=  158 fps=3.9 q=33.0 size=       1KiB time=00:00:01.28 bitrate=   3.5kbits/s speed=0.0318x elapsed=0:00:40.35    \nframe=  161 fps=3.9 q=10.0 size=       1KiB time=00:00:01.33 bitrate=   3.4kbits/s speed=0.0324x elapsed=0:00:41.18    \nframe=  165 fps=3.9 q=29.0 size=       1KiB time=00:00:01.36 bitrate=   3.3kbits/s speed=0.0327x elapsed=0:00:41.83    \nframe=  169 fps=4.0 q=24.0 size=       1KiB time=00:00:01.40 bitrate=   3.2kbits/s speed=0.0329x elapsed=0:00:42.49    \nframe=  172 fps=4.0 q=28.0 size=       1KiB time=00:00:01.41 bitrate=   3.2kbits/s speed=0.0329x elapsed=0:00:43.09    \nframe=  177 fps=4.0 q=10.0 size=       1KiB time=00:00:01.45 bitrate=   3.1kbits/s speed=0.0334x elapsed=0:00:43.71    \nframe=  181 fps=4.1 q=28.0 size=       1KiB time=00:00:01.50 bitrate=   3.0kbits/s speed=0.0338x elapsed=0:00:44.37    \nframe=  185 fps=4.1 q=22.0 size=       1KiB time=00:00:01.53 bitrate=   2.9kbits/s speed=0.0341x elapsed=0:00:44.95    \nframe=  189 fps=4.1 q=25.0 size=       1KiB time=00:00:01.55 bitrate=   2.9kbits/s speed=0.0342x elapsed=0:00:45.57    \nframe=  194 fps=4.2 q=32.0 size=       1KiB time=00:00:01.60 bitrate=   2.8kbits/s speed=0.0348x elapsed=0:00:46.17    \nframe=  197 fps=4.2 q=28.0 size=       1KiB time=00:00:01.63 bitrate=   2.7kbits/s speed=0.035x elapsed=0:00:46.69    \nframe=  205 fps=4.3 q=25.0 size=       1KiB time=00:00:01.70 bitrate=   2.6kbits/s speed=0.036x elapsed=0:00:47.28    \nframe=  213 fps=4.4 q=28.0 size=       1KiB time=00:00:01.76 bitrate=   2.5kbits/s speed=0.0368x elapsed=0:00:47.94    \nframe=  217 fps=4.5 q=22.0 size=       1KiB time=00:00:01.80 bitrate=   2.5kbits/s speed=0.0371x elapsed=0:00:48.51    \nframe=  223 fps=4.5 q=27.0 size=       1KiB time=00:00:01.83 bitrate=   2.4kbits/s speed=0.0374x elapsed=0:00:49.06    \nframe=  229 fps=4.6 q=27.0 size=       1KiB time=00:00:01.90 bitrate=   2.4kbits/s speed=0.0383x elapsed=0:00:49.66    \nframe=  233 fps=4.6 q=22.0 size=       1KiB time=00:00:01.93 bitrate=   2.3kbits/s speed=0.0385x elapsed=0:00:50.18    \nframe=  239 fps=4.7 q=27.0 size=       1KiB time=00:00:01.98 bitrate=   2.3kbits/s speed=0.0391x elapsed=0:00:50.76    \nframe=  247 fps=4.8 q=30.0 size=       1KiB time=00:00:02.05 bitrate=   2.2kbits/s speed=0.0399x elapsed=0:00:51.35    \nframe=  249 fps=4.8 q=21.0 size=       1KiB time=00:00:02.06 bitrate=   2.2kbits/s speed=0.0398x elapsed=0:00:51.86    \nframe=  253 fps=4.8 q=24.0 size=       1KiB time=00:00:02.10 bitrate=   2.1kbits/s speed=0.0401x elapsed=0:00:52.41    \nframe=  261 fps=4.9 q=25.0 size=       1KiB time=00:00:02.16 bitrate=   2.1kbits/s speed=0.0409x elapsed=0:00:52.98    \nframe=  265 fps=5.0 q=20.0 size=       1KiB time=00:00:02.20 bitrate=   2.0kbits/s speed=0.0411x elapsed=0:00:53.51    \nframe=  269 fps=5.0 q=25.0 size=       1KiB time=00:00:02.23 bitrate=   2.0kbits/s speed=0.0413x elapsed=0:00:54.02    \nframe=  277 fps=5.1 q=25.0 size=       1KiB time=00:00:02.30 bitrate=   1.9kbits/s speed=0.0422x elapsed=0:00:54.54    \nframe=  281 fps=5.1 q=25.0 size=       1KiB time=00:00:02.33 bitrate=   1.9kbits/s speed=0.0424x elapsed=0:00:55.06    \n[out#0/matroska @ 0000026df75b93c0] video:3832KiB audio:0KiB subtitle:0KiB other streams:0KiB global headers:0KiB muxing overhead: 0.051224%\nframe=  300 fps=5.4 q=29.0 Lsize=    3834KiB time=00:00:02.49 bitrate=12605.1kbits/s speed=0.0449x elapsed=0:00:55.47    \n",
  "seconds": 55.93538451194763,
  "probe_out": {}
}